<svg width="2563" height="1107" xmlns="http://www.w3.org/2000/svg" xmlns:xlink="http://www.w3.org/1999/xlink" xml:space="preserve" overflow="hidden"><g transform="translate(-182 -1191)"><text fill="#387C33" font-family="Candara,Candara_MSFontService,sans-serif" font-weight="400" font-size="527" transform="matrix(1 0 0 1 533.107 1842)">ata </text><text fill="#387C33" font-family="Candara,Candara_MSFontService,sans-serif" font-weight="400" font-size="527" transform="matrix(1 0 0 1 1352.95 1842)">Lime</text><path d="M212.655 1373.03C373.901 1375.09 502.534 1481.51 499.963 1610.73 497.393 1739.95 364.593 1843.03 203.346 1840.97 203.169 1840.97 202.992 1840.97 202.815 1840.96L208 1607Z" stroke="#387C33" stroke-width="40.1042" stroke-miterlimit="8" fill="#FFFFFF" fill-rule="evenodd"/><path d="M382.797 1760.13C348.377 1783.45 306.507 1797.23 262.751 1799.62L249 1614.5Z" fill="#3AA741" fill-rule="evenodd"/><path d="M382.168 1466.17C419.694 1494.04 444.786 1533.74 452.861 1578L252.687 1613.8Z" fill="#3AA741" fill-rule="evenodd"/><path d="M458.747 1607.15C458.075 1653.55 435.873 1698.96 397.149 1733.15L259.652 1616.12Z" fill="#6CBE3B" fill-rule="evenodd"/><path d="M262.611 1408.79C299.75 1412.9 335.283 1428.36 364.606 1453.15L250.151 1598.89Z" fill="#6CBE3B" fill-rule="evenodd"/></g></svg>